<svg width="74" height="73" viewBox="0 0 74 73" fill="none" xmlns="http://www.w3.org/2000/svg">
    <g clip-path="url(#clip0_2115_1180)">
        <path d="M62.0893 17.8766C56.7763 17.0779 47.9593 16.6989 40.9182 21.0416M62.0893 26.7378C56.7763 25.9391 47.9593 25.5601 40.9182 29.9028M62.0893 35.599C56.7763 34.8003 47.9593 34.4213 40.9182 38.764M62.0893 44.4602C56.7763 43.6615 47.9593 43.2825 40.9182 47.6252M11.9105 17.8766C17.2235 17.0779 26.0405 16.6989 33.0817 21.0416M11.9105 26.7378C17.2235 25.9391 26.0405 25.5601 33.0817 29.9028M11.9105 35.599C17.2235 34.8003 26.0405 34.4213 33.0817 38.764M11.9105 44.4602C17.2235 43.6615 26.0405 43.2825 33.0817 47.6252M66.5356 37.7113V12.074C66.5356 11.3206 66.0187 10.665 65.2853 10.4925C60.9079 9.4634 46.0479 6.83327 36.9999 15.8813M36.9999 15.8813C27.9518 6.83327 13.0918 9.4634 8.71433 10.4925C7.98091 10.665 7.46407 11.3206 7.46407 12.074V19.5943M36.9999 15.8813L36.9999 58.6473M7.46421 24.5749V52.4838C7.46421 53.5201 8.42005 54.2901 9.43307 54.0723C14.1943 53.0483 26.5742 51.2776 35.1996 58.0285C36.2539 58.8537 37.7459 58.8537 38.8002 58.0285C47.4257 51.2776 59.8055 53.0483 64.5667 54.0723C65.5799 54.2901 66.5357 53.5201 66.5357 52.4838V42.6913M7.46421 12.8511C5.32683 13.1627 3.63785 13.5361 2.62541 13.7861C2.32385 13.8605 2.05594 14.0338 1.8645 14.2784C1.67305 14.523 1.56913 14.8247 1.56934 15.1353V58.6236C1.56934 59.5166 2.39843 60.1787 3.26858 59.9785C8.0599 58.8761 22.0184 56.4932 32.6196 63.0346C33.2933 63.4494 34.069 63.6688 34.8601 63.6682H39.1398C39.931 63.6688 40.7067 63.4494 41.3803 63.0346C51.9814 56.4932 65.94 58.8761 70.7312 59.9785C71.6014 60.1787 72.4305 59.5166 72.4305 58.6236V15.1353C72.4307 14.8247 72.3267 14.523 72.1353 14.2784C71.9439 14.0338 71.6759 13.8605 71.3744 13.7861C70.3619 13.5361 68.673 13.1627 66.5357 12.8511" stroke="white" stroke-width="2" stroke-miterlimit="10" stroke-linecap="round" stroke-linejoin="round"/>
    </g>
    <defs>
        <clipPath id="clip0_2115_1180">
            <rect width="73" height="73" fill="white" transform="translate(0.5)"/>
        </clipPath>
    </defs>
</svg>
