<svg width="55" height="65" viewBox="0 0 55 65" fill="none" xmlns="http://www.w3.org/2000/svg">
<path d="M50.3333 34.0208V16.6833C50.3333 11.5728 50.3333 9.01759 49.3387 7.06565C48.4639 5.34867 47.0679 3.95272 45.351 3.07788C43.399 2.08331 40.8438 2.08331 35.7333 2.08331H16.2666C11.1561 2.08331 8.60091 2.08331 6.64896 3.07788C4.93198 3.95272 3.53604 5.34867 2.66119 7.06565C1.66663 9.01759 1.66663 11.5728 1.66663 16.6833V48.3166C1.66663 53.4271 1.66663 55.9824 2.66119 57.9343C3.53604 59.6513 4.93198 61.0472 6.64896 61.9221C8.60091 62.9166 11.1561 62.9166 16.2666 62.9166H26M32.0833 29.4583H13.8333M19.9166 41.625H13.8333M38.1666 17.2916H13.8333M33.6041 53.7916L39.6875 59.875L53.375 46.1875" stroke="white" stroke-width="2.5" stroke-linecap="round" stroke-linejoin="round"/>
</svg>
