<svg width="51" height="62" viewBox="0 0 51 62" fill="none" xmlns="http://www.w3.org/2000/svg">
<path d="M4 9.96902C4 7.05553 4 5.59879 4.60747 4.79577C5.13668 4.09621 5.94557 3.66331 6.82119 3.61102C7.82631 3.55101 9.03839 4.35907 11.4626 5.97518L43.0092 27.0063C45.0123 28.3417 46.0138 29.0094 46.3628 29.8509C46.668 30.5867 46.668 31.4136 46.3628 32.1494C46.0138 32.9909 45.0123 33.6586 43.0092 34.994L11.4626 56.0251C9.03839 57.6412 7.82631 58.4493 6.82119 58.3893C5.94557 58.337 5.13668 57.9041 4.60747 57.2045C4 56.4015 4 54.9448 4 52.0313V9.96902Z" stroke="white" stroke-width="7" stroke-linecap="round" stroke-linejoin="round"/>
</svg>
