<svg width="58" height="65" viewBox="0 0 58 65" fill="none" xmlns="http://www.w3.org/2000/svg">
<path d="M12.2708 56.8333H7.70833C4.3486 56.8333 1.625 54.1097 1.625 50.75V8.16665C1.625 4.80691 4.3486 2.08331 7.70833 2.08331H50.2917C53.6514 2.08331 56.375 4.80691 56.375 8.16665V50.75C56.375 54.1097 53.6514 56.8333 50.2917 56.8333H45.7292M29 53.7916C34.0396 53.7916 38.125 49.7062 38.125 44.6666C38.125 39.627 34.0396 35.5416 29 35.5416C23.9604 35.5416 19.875 39.627 19.875 44.6666C19.875 49.7062 23.9604 53.7916 29 53.7916ZM29 53.7916L29.0652 53.791L19.3539 63.5024L10.7507 54.8992L19.9348 45.7152M29 53.7916L38.7115 63.5024L47.3146 54.8992L38.1306 45.7152M19.875 14.25H38.125M13.7917 24.8958H44.2083" stroke="white" stroke-width="2.5" stroke-linecap="round" stroke-linejoin="round"/>
</svg>
