<svg width="60" height="73" viewBox="0 0 60 73" fill="none" xmlns="http://www.w3.org/2000/svg">
    <path d="M59.0508 0.886581C54.5672 -0.583337 49.3175 -0.2242 43.4475 1.95464C43.1812 2.05566 42.9658 2.25784 42.848 2.5171C42.7303 2.77635 42.7198 3.07164 42.8189 3.33858C42.918 3.60553 43.1186 3.82246 43.377 3.94208C43.6354 4.0617 43.9306 4.07431 44.1982 3.97715C49.2138 2.11559 53.6864 1.68094 57.5091 2.68069C57.1632 4.85018 56.1536 10.376 54.4251 13.5118C54.405 13.5482 54.3683 13.5771 54.3217 13.593C53.2828 13.9509 50.6399 14.8853 48.5426 15.8293C48.2905 15.9428 48.0768 16.1272 47.9277 16.3601C47.7785 16.5929 47.7003 16.8641 47.7026 17.1405C47.7049 17.4174 47.7877 17.6876 47.9409 17.9183C48.094 18.1489 48.311 18.3301 48.5653 18.4396L51.1286 19.5432C51.1775 19.5642 51.2164 19.6034 51.2371 19.6524C51.2578 19.7015 51.2587 19.7567 51.2396 19.8064C50.092 22.8222 46.8557 30.31 41.6057 34.693C41.5794 34.7142 41.5489 34.7296 41.5161 34.7381C40.2693 35.0866 35.9773 36.2644 33.0982 36.7875C32.7883 36.843 32.5064 37.0017 32.2982 37.2379C32.09 37.474 31.9679 37.7737 31.9518 38.088C31.9339 38.4028 32.0232 38.7143 32.205 38.9718C32.3868 39.2294 32.6504 39.4178 32.9529 39.5065L36.2148 40.4715C33.8578 42.38 28.853 45.9049 23.8284 46.1163C26.5451 39.6952 31.6642 31.161 41.2565 20.9344C41.6449 20.5226 41.883 19.9918 41.9324 19.4279C41.9818 18.864 41.8396 18.2999 41.5288 17.8267C41.3275 17.5182 41.0609 17.2577 40.7478 17.0635C40.4348 16.8693 40.083 16.7461 39.7171 16.7027C39.3517 16.6587 38.9811 16.6954 38.6314 16.8102C38.2817 16.9249 37.9614 17.115 37.6931 17.3669C33.8309 20.9871 22.7856 31.9276 17.2409 43.4332C14.4711 39.5434 13.0223 30.2192 24.6603 17.8142C24.6828 17.789 24.7113 17.77 24.7431 17.7588C24.775 17.7476 24.8092 17.7446 24.8425 17.7502C24.8764 17.7547 24.9087 17.7677 24.9363 17.788C24.9638 17.8084 24.9858 17.8353 25.0001 17.8664C25.6827 19.2542 26.4831 20.3827 27.3789 21.2206C27.839 21.651 28.5023 21.7498 29.0681 21.4728C29.635 21.1955 29.9642 20.6104 29.9068 19.9823C29.4563 15.0628 29.7837 12.6461 30.1184 12.2012C30.127 12.1943 30.1353 12.1874 30.1437 12.1804C30.1815 12.1483 33.9823 8.94222 39.2729 6.18347C39.524 6.04981 39.7122 5.82232 39.7965 5.55055C39.8807 5.27878 39.8542 4.98474 39.7226 4.73245C39.5911 4.48016 39.3652 4.29006 39.0941 4.20355C38.8231 4.11704 38.5288 4.14112 38.2754 4.27056C32.94 7.05276 29.1625 10.1865 28.7746 10.513C28.308 10.862 27.2318 11.7923 27.6005 18.0994C27.3572 17.7171 27.1355 17.3215 26.9362 16.9144C26.7673 16.5708 26.5176 16.2731 26.2085 16.0471C25.8994 15.821 25.5401 15.6733 25.1614 15.6165C24.783 15.5601 24.3966 15.5963 24.0354 15.722C23.6741 15.8477 23.3487 16.0592 23.0871 16.3383C17.172 22.6432 13.8618 28.8366 13.2487 34.7465C12.8011 39.0615 13.9238 43.1239 16.2528 45.6327C15.4294 47.6165 14.7934 49.6039 14.4065 51.5614H10.2151C9.14443 51.5614 8.2734 52.4324 8.2734 53.503V56.3333H6.1075C5.03685 56.3333 4.16583 57.2043 4.16583 58.275V66.1849H2.14822C1.07756 66.1849 0.206543 67.0559 0.206543 68.1266V71.0581C0.206543 72.1287 1.07756 72.9997 2.14822 72.9997H5.03685C5.32294 72.9997 5.59732 72.8861 5.79961 72.6838C6.00191 72.4815 6.11556 72.2071 6.11556 71.921C6.11556 71.6349 6.00191 71.3606 5.79961 71.1583C5.59732 70.956 5.32294 70.8423 5.03685 70.8423H2.36396V68.3426H32.4633V70.8426H9.35168C9.06559 70.8426 8.79121 70.9563 8.58892 71.1586C8.38662 71.3609 8.27297 71.6352 8.27297 71.9213C8.27297 72.2074 8.38662 72.4818 8.58892 72.6841C8.79121 72.8864 9.06559 73 9.35168 73H32.6789C33.7496 73 34.6206 72.129 34.6206 71.0584V68.1269C34.6206 67.0562 33.7496 66.1852 32.6789 66.1852H30.6613V58.2752C30.6613 57.2046 29.7903 56.3336 28.7197 56.3336H26.554V53.5033C26.554 52.4327 25.683 51.5617 24.6124 51.5617H21.906C22.186 50.556 22.5362 49.4605 22.9716 48.2795C23.1007 48.2833 23.2299 48.2858 23.3591 48.2868C26.3546 48.2867 29.6361 47.2615 33.1185 45.2365C35.9306 43.6014 38.058 41.7753 38.8421 41.0661C39.0136 40.9108 39.1407 40.7126 39.2104 40.492C39.28 40.2714 39.2898 40.0362 39.2386 39.8105C39.1871 39.5849 39.0764 39.377 38.9181 39.2083C38.7597 39.0395 38.5593 38.9158 38.3374 38.85L36.4254 38.2844C38.8063 37.7247 41.2092 37.064 42.0965 36.816C42.4236 36.7258 42.7276 36.5666 42.9881 36.3492C48.6289 31.64 52.0476 23.7481 53.2558 20.5737C53.4739 20.0043 53.4631 19.3725 53.2255 18.8109C52.988 18.2493 52.5422 17.8016 51.9816 17.5615L50.9881 17.1338C52.616 16.4753 54.2626 15.8951 55.0242 15.6327C55.5775 15.4421 56.0355 15.0586 56.3143 14.5531C58.682 10.2581 59.7401 2.38541 59.784 2.05245C59.8169 1.80311 59.7616 1.55011 59.6277 1.33722C59.4938 1.12432 59.2897 0.96492 59.0508 0.886581ZM28.5041 66.1852H6.32324V58.491H28.5039V66.1852H28.5041ZM24.3968 56.3336H10.4305V53.7191H24.3968V56.3336ZM16.6076 51.5617C17.8223 45.9443 21.3311 39.4107 27.0451 32.1297C31.7586 26.1237 36.6638 21.2888 39.1684 18.9411C39.207 18.9045 39.2533 18.8769 39.3038 18.8603C39.3543 18.8437 39.4079 18.8385 39.4607 18.845C39.5238 18.8527 39.6421 18.8839 39.7233 19.0083C39.8158 19.1495 39.7991 19.3348 39.6829 19.4588C26.3955 33.6248 21.4648 44.7198 19.6715 51.5615H16.6076V51.5617Z" fill="white"/>
    <path d="M11.6527 63.4186H23.1743C23.4604 63.4186 23.7347 63.305 23.937 63.1027C24.1393 62.9004 24.253 62.626 24.253 62.3399C24.253 62.0538 24.1393 61.7795 23.937 61.5772C23.7347 61.3749 23.4604 61.2612 23.1743 61.2612H11.6527C11.3666 61.2612 11.0922 61.3749 10.8899 61.5772C10.6876 61.7795 10.574 62.0538 10.574 62.3399C10.574 62.626 10.6876 62.9004 10.8899 63.1027C11.0922 63.305 11.3666 63.4186 11.6527 63.4186Z" fill="white"/>
</svg>
